<svg xmlns="http://www.w3.org/2000/svg" version="1.1" xmlns:xlink="http://www.w3.org/1999/xlink" xmlns:svgjs="http://svgjs.dev/svgjs" width="1440" height="560" preserveAspectRatio="none" viewBox="0 0 1440 560"><g mask="url(&quot;#SvgjsMask2797&quot;)" fill="none"><rect width="1440" height="560" x="0" y="0" fill="rgba(2, 2, 30, 1)"></rect><g mask="url(&quot;#SvgjsMask2798&quot;)"><path d="M208 240L240 272L272 272L304 272M368 240L400 272L432 272L464 272M336 240L368 272M464 240L496 240L528 240L560 240L592 240M144 272L176 272L208 272M-16 272L16 272L48 272L80 272L112 272L144 272L176 240L208 240L240 240L272 240L304 240L336 240L368 240L400 240L432 240L464 240L496 272L528 272L560 272L592 304L624 304" stroke="rgba(0, 190, 223, 1)" stroke-width="5.33"></path><path d="M616 304 a8 8 0 1 0 16 0 a8 8 0 1 0 -16 0zM296 272 a8 8 0 1 0 16 0 a8 8 0 1 0 -16 0zM456 272 a8 8 0 1 0 16 0 a8 8 0 1 0 -16 0zM360 272 a8 8 0 1 0 16 0 a8 8 0 1 0 -16 0zM584 240 a8 8 0 1 0 16 0 a8 8 0 1 0 -16 0zM200 272 a8 8 0 1 0 16 0 a8 8 0 1 0 -16 0z" fill="rgba(0, 190, 223, 1)"></path><path d="M240 304L272 336M432 304L464 336L496 336L528 336L560 336M80 304L112 336M176 304L208 336L240 336M48 304L80 336M-16 304L16 304L48 304L80 304L112 304L144 304L176 304L208 304L240 304L272 304L304 304L336 304L368 304L400 304L432 304L464 304L496 304L528 304L560 304L592 336L624 336" stroke="rgba(0, 190, 223, 1)" stroke-width="5.33"></path><path d="M616 336 a8 8 0 1 0 16 0 a8 8 0 1 0 -16 0zM264 336 a8 8 0 1 0 16 0 a8 8 0 1 0 -16 0zM552 336 a8 8 0 1 0 16 0 a8 8 0 1 0 -16 0zM104 336 a8 8 0 1 0 16 0 a8 8 0 1 0 -16 0zM232 336 a8 8 0 1 0 16 0 a8 8 0 1 0 -16 0zM72 336 a8 8 0 1 0 16 0 a8 8 0 1 0 -16 0z" fill="rgba(0, 190, 223, 1)"></path><path d="M368 208L400 176M304 208L336 176L368 176M400 208L432 208L464 208L496 208M-16 240L16 240L48 240L80 240L112 240L144 240L176 208L208 208L240 208L272 208L304 208L336 208L368 208L400 208L432 176" stroke="rgba(0, 190, 223, 1)" stroke-width="5.33"></path><path d="M424 176 a8 8 0 1 0 16 0 a8 8 0 1 0 -16 0zM392 176 a8 8 0 1 0 16 0 a8 8 0 1 0 -16 0zM360 176 a8 8 0 1 0 16 0 a8 8 0 1 0 -16 0zM488 208 a8 8 0 1 0 16 0 a8 8 0 1 0 -16 0z" fill="rgba(0, 190, 223, 1)"></path><path d="M-16 336L16 336" stroke="rgba(0, 190, 223, 1)" stroke-width="5.33"></path><path d="M8 336 a8 8 0 1 0 16 0 a8 8 0 1 0 -16 0z" fill="rgba(0, 190, 223, 1)"></path><path d="M112 176L144 208M48 208L80 208L112 208M-16 208L16 208L48 208L80 176L112 176L144 176L176 176L208 176L240 176" stroke="rgba(0, 190, 223, 1)" stroke-width="5.33"></path><path d="M232 176 a8 8 0 1 0 16 0 a8 8 0 1 0 -16 0zM136 208 a8 8 0 1 0 16 0 a8 8 0 1 0 -16 0zM104 208 a8 8 0 1 0 16 0 a8 8 0 1 0 -16 0z" fill="rgba(0, 190, 223, 1)"></path><path d="M-16 368L16 368L48 368L80 368L112 368L144 368L176 368L208 368L240 368" stroke="rgba(0, 190, 223, 1)" stroke-width="5.33"></path><path d="M232 368 a8 8 0 1 0 16 0 a8 8 0 1 0 -16 0z" fill="rgba(0, 190, 223, 1)"></path><path d="M240 144L272 112M80 144L112 112L144 112L176 112M496 144L528 176L560 176M208 144L240 112L272 80M-16 176L16 176L48 176L80 144L112 144L144 144L176 144L208 144L240 144L272 144L304 144L336 144L368 144L400 144L432 144L464 144L496 144L528 144" stroke="rgba(0, 190, 223, 1)" stroke-width="5.33"></path><path d="M520 144 a8 8 0 1 0 16 0 a8 8 0 1 0 -16 0zM264 112 a8 8 0 1 0 16 0 a8 8 0 1 0 -16 0zM168 112 a8 8 0 1 0 16 0 a8 8 0 1 0 -16 0zM552 176 a8 8 0 1 0 16 0 a8 8 0 1 0 -16 0zM264 80 a8 8 0 1 0 16 0 a8 8 0 1 0 -16 0z" fill="rgba(0, 190, 223, 1)"></path><path d="M48 400L80 432L112 432M592 400L624 368M528 400L560 368L592 368M368 400L400 432L432 464L464 464M336 432L368 432L400 464L432 496M-16 400L16 400L48 400L80 400L112 400L144 400L176 400L208 400L240 432L272 432L304 432L336 432L368 400L400 400L432 400L464 432L496 432L528 400L560 400L592 400L624 400L656 368" stroke="rgba(0, 190, 223, 1)" stroke-width="5.33"></path><path d="M648 368 a8 8 0 1 0 16 0 a8 8 0 1 0 -16 0zM104 432 a8 8 0 1 0 16 0 a8 8 0 1 0 -16 0zM616 368 a8 8 0 1 0 16 0 a8 8 0 1 0 -16 0zM584 368 a8 8 0 1 0 16 0 a8 8 0 1 0 -16 0zM456 464 a8 8 0 1 0 16 0 a8 8 0 1 0 -16 0zM424 496 a8 8 0 1 0 16 0 a8 8 0 1 0 -16 0z" fill="rgba(0, 190, 223, 1)"></path></g></g><defs><mask id="SvgjsMask2797"><rect width="1440" height="560" fill="#ffffff"></rect></mask><mask id="SvgjsMask2798"><rect width="1440" height="560" fill="white"></rect><path d="M620 304 a4 4 0 1 0 8 0 a4 4 0 1 0 -8 0zM300 272 a4 4 0 1 0 8 0 a4 4 0 1 0 -8 0zM460 272 a4 4 0 1 0 8 0 a4 4 0 1 0 -8 0zM364 272 a4 4 0 1 0 8 0 a4 4 0 1 0 -8 0zM588 240 a4 4 0 1 0 8 0 a4 4 0 1 0 -8 0zM204 272 a4 4 0 1 0 8 0 a4 4 0 1 0 -8 0z" fill="black"></path><path d="M620 336 a4 4 0 1 0 8 0 a4 4 0 1 0 -8 0zM268 336 a4 4 0 1 0 8 0 a4 4 0 1 0 -8 0zM556 336 a4 4 0 1 0 8 0 a4 4 0 1 0 -8 0zM108 336 a4 4 0 1 0 8 0 a4 4 0 1 0 -8 0zM236 336 a4 4 0 1 0 8 0 a4 4 0 1 0 -8 0zM76 336 a4 4 0 1 0 8 0 a4 4 0 1 0 -8 0z" fill="black"></path><path d="M428 176 a4 4 0 1 0 8 0 a4 4 0 1 0 -8 0zM396 176 a4 4 0 1 0 8 0 a4 4 0 1 0 -8 0zM364 176 a4 4 0 1 0 8 0 a4 4 0 1 0 -8 0zM492 208 a4 4 0 1 0 8 0 a4 4 0 1 0 -8 0z" fill="black"></path><path d="M12 336 a4 4 0 1 0 8 0 a4 4 0 1 0 -8 0z" fill="black"></path><path d="M236 176 a4 4 0 1 0 8 0 a4 4 0 1 0 -8 0zM140 208 a4 4 0 1 0 8 0 a4 4 0 1 0 -8 0zM108 208 a4 4 0 1 0 8 0 a4 4 0 1 0 -8 0z" fill="black"></path><path d="M236 368 a4 4 0 1 0 8 0 a4 4 0 1 0 -8 0z" fill="black"></path><path d="M524 144 a4 4 0 1 0 8 0 a4 4 0 1 0 -8 0zM268 112 a4 4 0 1 0 8 0 a4 4 0 1 0 -8 0zM172 112 a4 4 0 1 0 8 0 a4 4 0 1 0 -8 0zM556 176 a4 4 0 1 0 8 0 a4 4 0 1 0 -8 0zM268 80 a4 4 0 1 0 8 0 a4 4 0 1 0 -8 0z" fill="black"></path><path d="M652 368 a4 4 0 1 0 8 0 a4 4 0 1 0 -8 0zM108 432 a4 4 0 1 0 8 0 a4 4 0 1 0 -8 0zM620 368 a4 4 0 1 0 8 0 a4 4 0 1 0 -8 0zM588 368 a4 4 0 1 0 8 0 a4 4 0 1 0 -8 0zM460 464 a4 4 0 1 0 8 0 a4 4 0 1 0 -8 0zM428 496 a4 4 0 1 0 8 0 a4 4 0 1 0 -8 0z" fill="black"></path></mask></defs></svg>